<!DOCTYPE svg PUBLIC "-//W3C//DTD SVG 1.1//EN" "http://www.w3.org/Graphics/SVG/1.1/DTD/svg11.dtd">
<!-- Uploaded to: SVG Repo, www.svgrepo.com, Transformed by: SVG Repo Mixer Tools -->
<svg version="1.1" id="Layer_1" xmlns="http://www.w3.org/2000/svg" xmlns:xlink="http://www.w3.org/1999/xlink" viewBox="0 0 512 512" xml:space="preserve" width="800px" height="800px" fill="#000000">
<g id="SVGRepo_bgCarrier" stroke-width="0"/>
<g id="SVGRepo_tracerCarrier" stroke-linecap="round" stroke-linejoin="round"/>
<g id="SVGRepo_iconCarrier"> <rect x="63.875" y="91.888" style="fill:#84DCCF;" width="384.251" height="192.125"/> <path style="fill:#027EA8;" d="M63.874,91.891l174.481,123.591c10.572,7.489,24.719,7.489,35.29,0L448.126,91.891"/> <polygon style="fill:#FBA218;" points="400.196,228.31 400.196,283.69 111.804,283.69 111.804,228.31 7.314,228.31 7.314,420.571 503.641,420.571 503.641,228.31 "/> <path style="fill:#FFFFFF;" d="M328.048,356.066H183.952c-8.842,0-16.011-7.168-16.011-16.011l0,0 c0-8.842,7.168-16.011,16.011-16.011h144.095c8.842,0,16.011,7.168,16.011,16.011l0,0 C344.058,348.898,336.89,356.066,328.048,356.066z"/> <rect x="7.837" y="227.986" style="fill:#F15A24;" width="64.042" height="192.125"/> <path d="M328.048,364.071H183.952c-13.242,0-24.016-10.774-24.016-24.015c0-13.242,10.774-24.015,24.016-24.015h144.095 c13.242,0,24.016,10.774,24.016,24.015S341.29,364.071,328.048,364.071z M183.952,332.05c-4.415,0-8.006,3.591-8.006,8.005 c0,4.415,3.591,8.005,8.006,8.005h144.095c4.415,0,8.006-3.59,8.006-8.005c0-4.415-3.591-8.005-8.006-8.005H183.952z"/> <rect x="216.294" y="372.506" width="15.673" height="15.673"/> <rect x="247.641" y="372.506" style="fill:#FFFFFF;" width="16.718" height="15.673"/> <rect x="280.033" y="372.506" width="15.673" height="15.673"/> <path d="M391.837,219.951v44.489l-71.921-71.921l119.987-84.991v104.065h15.673V84.114H56.424v127.478h15.673V107.527 l119.987,84.991l-71.921,71.921v-44.489H0v207.935h512V219.951H391.837z M88.871,99.788h334.26L269.018,208.95 c-7.786,5.515-18.249,5.517-26.036,0L88.871,99.788z M205.338,201.907l28.389,20.109c6.662,4.719,14.466,7.077,22.272,7.077 c7.805,0,15.612-2.36,22.272-7.077l28.389-20.109l74.47,74.469h-250.26L205.338,201.907z M496.327,412.212H15.673V235.624h88.816 v56.424h303.02v-56.424h88.816V412.212z"/> <rect x="247.641" y="180.245" width="16.718" height="15.673"/> <g> <rect x="159.869" y="116.506" style="fill:#FFFFFF;" width="192.261" height="15.673"/> <rect x="192.261" y="140.539" style="fill:#FFFFFF;" width="127.478" height="15.673"/> </g> </g>
</svg>